<svg width="168" height="138" viewBox="0 0 168 138" fill="none" xmlns="http://www.w3.org/2000/svg">
<g clip-path="url(#clip0_351_51)">
<path d="M166.292 72.8044C166.152 73.6769 165.978 74.5843 165.769 75.4569C158.901 104.6 116.753 119.572 71.5719 108.927C40.2309 101.528 15.6881 83.7285 5.89187 63.7998C2.09191 69.9773 -0.034668 76.7133 -0.034668 83.7983C-0.034668 113.744 37.5814 138 83.9828 138C130.384 138 168 113.744 168 83.7983C168 80.0289 167.408 76.3643 166.292 72.8393V72.8044Z" fill="#408AFA"/>
<path d="M84.0177 29.5962C124.597 29.5962 158.448 48.1638 166.292 72.8041C170.754 44.3944 140.215 13.751 96.4286 3.42022C51.2474 -7.22469 9.09923 7.74799 2.23141 36.8906C0.139691 45.7905 1.6039 55.0044 5.92678 63.7996C18.2679 43.7662 48.563 29.5962 84.0177 29.5962Z" fill="#408AFA"/>
</g>
<defs>
<clipPath id="clip0_351_51">
<rect width="168" height="138" fill="white"/>
</clipPath>
</defs>
</svg>
