<svg width="14" height="3" viewBox="0 0 14 3" fill="none" xmlns="http://www.w3.org/2000/svg">
<path d="M10.875 1.46C10.875 1.04667 11.0217 0.7 11.315 0.42C11.6217 0.14 11.955 0 12.315 0C12.6483 0 12.9617 0.14 13.255 0.42C13.5617 0.7 13.715 1.04667 13.715 1.46C13.715 1.9 13.5617 2.25333 13.255 2.52C12.9617 2.77333 12.6483 2.9 12.315 2.9C11.955 2.9 11.6217 2.77333 11.315 2.52C11.0217 2.25333 10.875 1.9 10.875 1.46Z" fill="black"/>
<path d="M5.4375 1.46C5.4375 1.04667 5.58416 0.7 5.87749 0.42C6.18416 0.14 6.51749 0 6.87749 0C7.21083 0 7.52416 0.14 7.8175 0.42C8.12416 0.7 8.2775 1.04667 8.2775 1.46C8.2775 1.9 8.12416 2.25333 7.8175 2.52C7.52416 2.77333 7.21083 2.9 6.87749 2.9C6.51749 2.9 6.18416 2.77333 5.87749 2.52C5.58416 2.25333 5.4375 1.9 5.4375 1.46Z" fill="black"/>
<path d="M0 1.46C0 1.04667 0.146661 0.7 0.439995 0.42C0.746662 0.14 1.07999 0 1.43999 0C1.77333 0 2.08666 0.14 2.38 0.42C2.68666 0.7 2.84 1.04667 2.84 1.46C2.84 1.9 2.68666 2.25333 2.38 2.52C2.08666 2.77333 1.77333 2.9 1.43999 2.9C1.07999 2.9 0.746662 2.77333 0.439995 2.52C0.146661 2.25333 0 1.9 0 1.46Z" fill="black"/>
</svg>
